<?xml version="1.0" encoding="utf-8"?>
<!-- Generator: Adobe Illustrator 18.0.0, SVG Export Plug-In . SVG Version: 6.00 Build 0)  -->
<!DOCTYPE svg PUBLIC "-//W3C//DTD SVG 1.1//EN" "http://www.w3.org/Graphics/SVG/1.1/DTD/svg11.dtd">
<svg version="1.1" xmlns="http://www.w3.org/2000/svg" xmlns:xlink="http://www.w3.org/1999/xlink" x="0px" y="0px"
	 viewBox="0 0 289.7 355.3" enable-background="new 0 0 289.7 355.3" xml:space="preserve">
<g id="Layer_1" display="none">
</g>
<g id="Layer_2" display="none">
</g>
<g id="Layer_3" display="none">
</g>
<g id="Layer_4">
	<path fill="#87A2AF" d="M146.8,278.8L146.8,278.8c-1.6,0-2.9,1.3-2.9,2.9v13.7c0,1.6,1.3,2.9,2.9,2.9l0,0c1.6,0,2.9-1.3,2.9-2.9
		v-13.7C149.7,280.1,148.4,278.8,146.8,278.8z"/>
	<ellipse fill="#87A2AF" cx="237.8" cy="315.7" rx="5.9" ry="8.2"/>
	<rect x="75.2" y="269.3" fill="#87A2AF" width="143.1" height="11.8"/>
	<path fill="#688089" d="M82.4,272.7L82.4,272.7c-1.6,0-2.9,1.3-2.9,2.9v13.7c0,1.6,1.3,2.9,2.9,2.9h0c1.6,0,2.9-1.3,2.9-2.9v-13.7
		C85.3,274,84,272.7,82.4,272.7z"/>
	<path fill="#688089" d="M208.4,272.7L208.4,272.7c-1.6,0-2.9,1.3-2.9,2.9v13.7c0,1.6,1.3,2.9,2.9,2.9l0,0c1.6,0,2.9-1.3,2.9-2.9
		v-13.7C211.4,274,210.1,272.7,208.4,272.7z"/>
	<rect x="230" y="307.5" fill="#688089" width="15.1" height="3.9"/>
	<rect x="139.3" y="66.3" fill="#87A2AF" width="15" height="214.2"/>
	<rect x="139.3" y="49.8" opacity="0.3" width="15" height="26.5"/>
	<g>
		<g>
			<path fill="#495F6D" stroke="#F2F2F2" stroke-miterlimit="10" d="M181.9,178.3c0,0-35,12.3-60,2.3l2-32.3c0,0,35.7-3,46.3,17.3
				l8.3,2.3L181.9,178.3"/>
			<circle fill="#495F6D" stroke="#F2F2F2" stroke-miterlimit="10" cx="188.2" cy="166.1" r="18.5"/>
			<path fill="#495F6D" stroke="#F2F2F2" stroke-miterlimit="10" d="M120.6,143h-0.3c0,0,0,0-0.1,0h-27c-3.5,0-6.6,2.6-6.6,6.1v2.4
				c0,3.5,3.1,6.5,6.6,6.5h18.4v18.2c0,3.5,3.1,6.8,6.6,6.8h2.4c3.5,0,6.1-3.3,6.1-6.8v-27C126.7,145.7,124.1,143,120.6,143z"/>
			<path fill="#495F6D" stroke="#F2F2F2" stroke-miterlimit="10" d="M171.5,171.8l-13.9-13.7v-15.4c0-3.5-2.8-6.7-6.3-6.7h0.4
				c-3.5,0-5.1,3.2-5.1,6.7v17.8c0,1.3-0.3,2.6,0.4,3.6c0.3,0.5,0.2,1,0.7,1.4l15.1,15.3c2.5,2.5,6.3,2.5,8.8,0
				C174.2,178.3,174,174.3,171.5,171.8z"/>
		</g>
		<path fill="#F2F2F2" stroke="#495F6D" stroke-miterlimit="10" d="M188.4,171.8L188.4,171.8c-3.6,0-6.5-2.9-6.5-6.5v-11.5
			c0-3.6,2.9-6.5,6.5-6.5h0c3.6,0,6.5,2.9,6.5,6.5v11.5C195,168.9,192.1,171.8,188.4,171.8z"/>
	</g>
	<rect x="139.3" y="267.1" opacity="0.3" width="15" height="2.4"/>
	<ellipse fill="#87A2AF" cx="55.2" cy="315.7" rx="5.9" ry="8.2"/>
	<rect x="47.4" y="307.5" fill="#688089" width="15.1" height="3.9"/>
	<rect x="130.6" y="278.8" fill="#688089" width="32.4" height="6.1"/>
	<rect x="55.9" y="184.7" fill="#87A2AF" width="181.8" height="15"/>
	<rect x="234.2" y="143.3" fill="#688089" width="6.8" height="164.9"/>
	<rect x="51.6" y="143.3" fill="#688089" width="6.8" height="164.9"/>
</g>
<g id="Layer_5" display="none">
	<polygon display="inline" opacity="0.3" fill="#56FFFF" points="92.7,60.4 60.6,185.5 233,185.5 198.7,62 	"/>
</g>
<g id="Layer_6">
	<path fill="#66AADA" d="M227.7,46.5h-7.3c-11.3-6-40-11-73.6-11s-62.3,5-73.6,11h-7.3c-5.6,0-10.2,4.4-10.2,10
		c0,5.6,4.6,10,10.2,10h161.7c5.6,0,10.2-4.4,10.2-10C237.8,50.9,233.3,46.5,227.7,46.5z"/>
	<linearGradient id="SVGID_1_" gradientUnits="userSpaceOnUse" x1="146.7929" y1="46.0768" x2="146.7929" y2="66.4471">
		<stop  offset="0" style="stop-color:#FFFFFF;stop-opacity:0"/>
		<stop  offset="1" style="stop-color:#000000"/>
	</linearGradient>
	<path opacity="0.2" fill="url(#SVGID_1_)" d="M227.7,66.4H65.9c-5.6,0-10.2-4.6-10.2-10.2v0c0-5.6,4.6-10.2,10.2-10.2h161.7
		c5.6,0,10.2,4.6,10.2,10.2v0C237.8,61.9,233.3,66.4,227.7,66.4z"/>
</g>
</svg>
